<svg
            width="74"
            height="25"
            viewBox="0 0 74 25"
            fill="none"
            xmlns="http://www.w3.org/2000/svg">
            <path
              d="M0.304688 0.946777H11.4819V3.60158H3.02713V8.45464H10.3574V11.0925H3.06941V18.7019H0.304688V0.946777Z"
              fill="black"></path>
            <path
              d="M13.5192 2.23291C13.5191 1.99616 13.5667 1.76182 13.6593 1.54392C13.7518 1.32603 13.8875 1.12907 14.058 0.964854C14.2285 0.800637 14.4305 0.672544 14.6517 0.588252C14.8729 0.50396 15.1089 0.465205 15.3455 0.474311C15.579 0.464768 15.8119 0.503727 16.0296 0.588728C16.2473 0.673729 16.445 0.802928 16.6102 0.968171C16.7755 1.13341 16.9047 1.33111 16.9897 1.5488C17.0747 1.76648 17.1136 1.99941 17.1041 2.23291C17.1109 2.46769 17.0704 2.70144 16.9849 2.92023C16.8995 3.13902 16.7709 3.33837 16.6068 3.50642C16.4427 3.67446 16.2465 3.80775 16.0298 3.89836C15.8131 3.98896 15.5803 4.03501 15.3455 4.03378C15.1059 4.04065 14.8675 3.99896 14.6445 3.91122C14.4215 3.82347 14.2185 3.69149 14.0479 3.52323C13.8773 3.35496 13.7424 3.15389 13.6516 2.93214C13.5607 2.71038 13.5157 2.47253 13.5192 2.23291V2.23291ZM13.9758 18.7029V5.74165H16.6221V18.7029H13.9758Z"
              fill="black"></path>
            <path
              d="M33.6383 12.2335C33.6724 13.1074 33.5301 13.9792 33.2198 14.7969C32.9095 15.6146 32.4376 16.3614 31.8324 16.9927C31.2271 17.624 30.5009 18.1268 29.697 18.4713C28.8931 18.8157 28.0281 18.9946 27.1535 18.9974C26.3062 19.0046 25.4691 18.8125 24.7098 18.4365C23.9504 18.0605 23.2902 17.5112 22.7824 16.8329V18.7014H20.1614V0.4729H22.7993V7.61721C23.3053 6.93311 23.9657 6.37819 24.7267 5.99766C25.4878 5.61713 26.328 5.42174 27.1789 5.42741C28.0543 5.43568 28.9191 5.61998 29.7219 5.96935C30.5246 6.31871 31.2489 6.82599 31.8516 7.46101C32.4542 8.09602 32.923 8.84579 33.2299 9.66568C33.5369 10.4856 33.6758 11.3589 33.6383 12.2335V12.2335ZM30.9243 12.2335C30.9496 11.6766 30.8617 11.1202 30.6659 10.5982C30.4701 10.0761 30.1706 9.59917 29.7854 9.1961C29.4002 8.79303 28.9373 8.47222 28.4246 8.25304C27.9119 8.03386 27.3602 7.92086 26.8026 7.92086C26.2451 7.92086 25.6933 8.03386 25.1807 8.25304C24.668 8.47222 24.2051 8.79303 23.8199 9.1961C23.4346 9.59917 23.1351 10.0761 22.9393 10.5982C22.7436 11.1202 22.6557 11.6766 22.6809 12.2335C22.6557 12.7905 22.7436 13.3468 22.9393 13.8689C23.1351 14.3909 23.4346 14.8679 23.8199 15.271C24.2051 15.674 24.668 15.9948 25.1807 16.214C25.6933 16.4332 26.2451 16.5462 26.8026 16.5462C27.3602 16.5462 27.9119 16.4332 28.4246 16.214C28.9373 15.9948 29.4002 15.674 29.7854 15.271C30.1706 14.8679 30.4701 14.3909 30.6659 13.8689C30.8617 13.3468 30.9496 12.7905 30.9243 12.2335V12.2335Z"
              fill="black"></path>
            <path
              d="M48.5006 13.2408H38.3549C38.506 14.2468 39.0356 15.1571 39.8355 15.7857C40.6354 16.4143 41.6451 16.7137 42.6584 16.6227C44.2273 16.5888 45.7534 16.1045 47.0549 15.2276L48.1625 17.1722C46.5369 18.343 44.5856 18.9757 42.5823 18.9816C37.7039 18.9816 35.6409 15.5996 35.6409 12.2177C35.5937 11.33 35.7312 10.4421 36.0448 9.61027C36.3583 8.77841 36.841 8.02066 37.4625 7.38494C38.0839 6.74922 38.8304 6.24937 39.655 5.91698C40.4795 5.58459 41.364 5.4269 42.2526 5.45389C45.8797 5.45389 48.5937 7.88042 48.5937 11.9894C48.589 12.4081 48.5579 12.826 48.5006 13.2408V13.2408ZM38.3972 11.0932H45.9642C45.9118 10.1618 45.4983 9.28748 44.8115 8.656C44.1248 8.02453 43.2189 7.68564 42.2864 7.71132C41.3365 7.70138 40.4161 8.04014 39.6993 8.66342C38.9825 9.28671 38.5192 10.1512 38.3972 11.0932V11.0932Z"
              fill="black"></path>
            <path
              d="M50.8357 5.7393H53.3721V7.5909C53.7002 6.90337 54.2247 6.32845 54.8792 5.93872C55.5338 5.54899 56.2892 5.36191 57.05 5.4011C57.5709 5.398 58.0895 5.47208 58.5887 5.62093L58.3436 8.15737C57.893 8.01305 57.4215 7.94448 56.9485 7.95445C55.08 7.95445 53.5159 9.1804 53.5159 12.0635V18.7005H50.8357V5.7393Z"
              fill="black"></path>
            <path
              d="M73.166 5.74072L67.8057 19.8771C66.6473 22.9293 65.1593 24.1975 62.9695 24.1975C62.1964 24.2303 61.4303 24.0395 60.7628 23.648L61.1433 21.3652C61.6493 21.6062 62.1983 21.7441 62.7581 21.771C63.7896 21.771 64.6097 21.1707 65.2946 19.5643L65.7089 18.6005L60.0864 5.74072H63.1386L66.9433 15.0917L70.2575 5.74072H73.166Z"
              fill="black"></path>
          </svg>